<mxfile host="app.diagrams.net" modified="2020-10-07T04:13:20.914Z" agent="5.0 (Macintosh; Intel Mac OS X 10_15_4) AppleWebKit/537.36 (KHTML, like Gecko) Chrome/85.0.4183.121 Safari/537.36" etag="VvnA8ukSLof_nr3Gg8D_" version="13.7.7" type="github">
  <diagram id="C5RBs43oDa-KdzZeNtuy" name="Page-1">
    <mxGraphModel dx="1426" dy="1630" grid="1" gridSize="10" guides="1" tooltips="1" connect="1" arrows="1" fold="1" page="1" pageScale="1" pageWidth="1169" pageHeight="827" math="0" shadow="0">
      <root>
        <mxCell id="WIyWlLk6GJQsqaUBKTNV-0" />
        <mxCell id="WIyWlLk6GJQsqaUBKTNV-1" parent="WIyWlLk6GJQsqaUBKTNV-0" />
        <mxCell id="WIyWlLk6GJQsqaUBKTNV-2" value="" style="rounded=0;html=1;jettySize=auto;orthogonalLoop=1;fontSize=11;endArrow=block;endFill=0;endSize=8;strokeWidth=1;shadow=0;labelBackgroundColor=none;edgeStyle=orthogonalEdgeStyle;" parent="WIyWlLk6GJQsqaUBKTNV-1" source="WIyWlLk6GJQsqaUBKTNV-3" target="WIyWlLk6GJQsqaUBKTNV-6" edge="1">
          <mxGeometry relative="1" as="geometry" />
        </mxCell>
        <mxCell id="WIyWlLk6GJQsqaUBKTNV-3" value="Basic details" style="rounded=1;whiteSpace=wrap;html=1;fontSize=12;glass=0;strokeWidth=1;shadow=0;" parent="WIyWlLk6GJQsqaUBKTNV-1" vertex="1">
          <mxGeometry x="40" y="-240" width="120" height="40" as="geometry" />
        </mxCell>
        <mxCell id="WIyWlLk6GJQsqaUBKTNV-5" value="" style="edgeStyle=orthogonalEdgeStyle;rounded=0;html=1;jettySize=auto;orthogonalLoop=1;fontSize=11;endArrow=block;endFill=0;endSize=8;strokeWidth=1;shadow=0;labelBackgroundColor=none;" parent="WIyWlLk6GJQsqaUBKTNV-1" source="WIyWlLk6GJQsqaUBKTNV-6" target="WIyWlLk6GJQsqaUBKTNV-7" edge="1">
          <mxGeometry y="10" relative="1" as="geometry">
            <mxPoint as="offset" />
          </mxGeometry>
        </mxCell>
        <mxCell id="WIyWlLk6GJQsqaUBKTNV-6" value="Which of the following&lt;br&gt;&amp;nbsp;are you?" style="rhombus;whiteSpace=wrap;html=1;shadow=0;fontFamily=Helvetica;fontSize=12;align=center;strokeWidth=1;spacing=6;spacingTop=-4;" parent="WIyWlLk6GJQsqaUBKTNV-1" vertex="1">
          <mxGeometry x="22.5" y="-105" width="155" height="150" as="geometry" />
        </mxCell>
        <mxCell id="WIyWlLk6GJQsqaUBKTNV-7" value="I am a Patient In Care" style="rounded=1;whiteSpace=wrap;html=1;fontSize=12;glass=0;strokeWidth=1;shadow=0;" parent="WIyWlLk6GJQsqaUBKTNV-1" vertex="1">
          <mxGeometry x="280" y="-50" width="170" height="40" as="geometry" />
        </mxCell>
        <mxCell id="YsAzkoRpbYnnfD4Dn1DD-2" value="Do you have an existing account?" style="rhombus;whiteSpace=wrap;html=1;" parent="WIyWlLk6GJQsqaUBKTNV-1" vertex="1">
          <mxGeometry x="553.75" y="-90" width="120" height="120" as="geometry" />
        </mxCell>
        <mxCell id="YsAzkoRpbYnnfD4Dn1DD-3" value="" style="endArrow=classic;html=1;entryX=0;entryY=0.5;entryDx=0;entryDy=0;exitX=1;exitY=0.5;exitDx=0;exitDy=0;" parent="WIyWlLk6GJQsqaUBKTNV-1" source="WIyWlLk6GJQsqaUBKTNV-7" target="YsAzkoRpbYnnfD4Dn1DD-2" edge="1">
          <mxGeometry width="50" height="50" relative="1" as="geometry">
            <mxPoint x="350" y="420" as="sourcePoint" />
            <mxPoint x="400" y="370" as="targetPoint" />
          </mxGeometry>
        </mxCell>
        <mxCell id="YsAzkoRpbYnnfD4Dn1DD-4" value="" style="endArrow=classic;html=1;exitX=0.5;exitY=1;exitDx=0;exitDy=0;" parent="WIyWlLk6GJQsqaUBKTNV-1" source="YsAzkoRpbYnnfD4Dn1DD-7" target="YsAzkoRpbYnnfD4Dn1DD-5" edge="1">
          <mxGeometry width="50" height="50" relative="1" as="geometry">
            <mxPoint x="590" y="420" as="sourcePoint" />
            <mxPoint x="670" y="440" as="targetPoint" />
          </mxGeometry>
        </mxCell>
        <mxCell id="YsAzkoRpbYnnfD4Dn1DD-12" style="edgeStyle=orthogonalEdgeStyle;rounded=0;orthogonalLoop=1;jettySize=auto;html=1;entryX=0.5;entryY=0;entryDx=0;entryDy=0;" parent="WIyWlLk6GJQsqaUBKTNV-1" source="YsAzkoRpbYnnfD4Dn1DD-5" target="YsAzkoRpbYnnfD4Dn1DD-10" edge="1">
          <mxGeometry relative="1" as="geometry" />
        </mxCell>
        <mxCell id="YsAzkoRpbYnnfD4Dn1DD-77" value="if valid user" style="edgeLabel;html=1;align=center;verticalAlign=middle;resizable=0;points=[];" parent="YsAzkoRpbYnnfD4Dn1DD-12" vertex="1" connectable="0">
          <mxGeometry x="-0.275" y="1" relative="1" as="geometry">
            <mxPoint as="offset" />
          </mxGeometry>
        </mxCell>
        <mxCell id="YsAzkoRpbYnnfD4Dn1DD-5" value="Please enter your account number&lt;br&gt;&lt;font color=&quot;#006600&quot;&gt;Api to check account available&lt;br&gt;&lt;/font&gt;&lt;font color=&quot;#ff4f0f&quot;&gt;Need API to link the account&lt;/font&gt;" style="rounded=0;whiteSpace=wrap;html=1;" parent="WIyWlLk6GJQsqaUBKTNV-1" vertex="1">
          <mxGeometry x="521.25" y="160" width="185" height="80" as="geometry" />
        </mxCell>
        <mxCell id="YsAzkoRpbYnnfD4Dn1DD-7" value="Yes" style="text;html=1;align=center;verticalAlign=middle;resizable=0;points=[];autosize=1;" parent="WIyWlLk6GJQsqaUBKTNV-1" vertex="1">
          <mxGeometry x="593.75" y="90" width="40" height="20" as="geometry" />
        </mxCell>
        <mxCell id="YsAzkoRpbYnnfD4Dn1DD-9" value="" style="endArrow=classic;html=1;exitX=0.5;exitY=1;exitDx=0;exitDy=0;" parent="WIyWlLk6GJQsqaUBKTNV-1" source="YsAzkoRpbYnnfD4Dn1DD-2" target="YsAzkoRpbYnnfD4Dn1DD-7" edge="1">
          <mxGeometry width="50" height="50" relative="1" as="geometry">
            <mxPoint x="720" y="370" as="sourcePoint" />
            <mxPoint x="720" y="540" as="targetPoint" />
          </mxGeometry>
        </mxCell>
        <mxCell id="YsAzkoRpbYnnfD4Dn1DD-10" value="&lt;span&gt;&lt;font color=&quot;#ff1900&quot;&gt;We need linked service list from api&lt;/font&gt;&lt;/span&gt;" style="rounded=0;whiteSpace=wrap;html=1;" parent="WIyWlLk6GJQsqaUBKTNV-1" vertex="1">
          <mxGeometry x="525" y="320" width="177.5" height="80" as="geometry" />
        </mxCell>
        <mxCell id="YsAzkoRpbYnnfD4Dn1DD-14" value="Will you be &lt;br&gt;receiving services from &lt;br&gt;Bayshore?&lt;br&gt;&lt;font color=&quot;#ff4124&quot;&gt;Api to update this&lt;br&gt;&amp;nbsp;status&amp;nbsp;&lt;/font&gt;&lt;font color=&quot;#ff4124&quot;&gt;&lt;br&gt;&lt;/font&gt;" style="rhombus;whiteSpace=wrap;html=1;" parent="WIyWlLk6GJQsqaUBKTNV-1" vertex="1">
          <mxGeometry x="930" y="-110" width="160" height="160" as="geometry" />
        </mxCell>
        <mxCell id="YsAzkoRpbYnnfD4Dn1DD-15" value="" style="endArrow=classic;html=1;entryX=0;entryY=0.5;entryDx=0;entryDy=0;exitX=1;exitY=0.5;exitDx=0;exitDy=0;" parent="WIyWlLk6GJQsqaUBKTNV-1" source="YsAzkoRpbYnnfD4Dn1DD-2" target="YsAzkoRpbYnnfD4Dn1DD-14" edge="1">
          <mxGeometry width="50" height="50" relative="1" as="geometry">
            <mxPoint x="710" y="160" as="sourcePoint" />
            <mxPoint x="760" y="110" as="targetPoint" />
          </mxGeometry>
        </mxCell>
        <mxCell id="YsAzkoRpbYnnfD4Dn1DD-16" value="No" style="edgeLabel;html=1;align=center;verticalAlign=middle;resizable=0;points=[];" parent="YsAzkoRpbYnnfD4Dn1DD-15" vertex="1" connectable="0">
          <mxGeometry x="0.1455" relative="1" as="geometry">
            <mxPoint as="offset" />
          </mxGeometry>
        </mxCell>
        <mxCell id="YsAzkoRpbYnnfD4Dn1DD-17" value="Welcome to Bayshore" style="rounded=1;whiteSpace=wrap;html=1;" parent="WIyWlLk6GJQsqaUBKTNV-1" vertex="1">
          <mxGeometry x="640" y="-235" width="120" height="60" as="geometry" />
        </mxCell>
        <mxCell id="YsAzkoRpbYnnfD4Dn1DD-18" value="" style="endArrow=classic;html=1;exitX=0;exitY=0.5;exitDx=0;exitDy=0;entryX=1;entryY=0.5;entryDx=0;entryDy=0;" parent="WIyWlLk6GJQsqaUBKTNV-1" source="YsAzkoRpbYnnfD4Dn1DD-102" target="YsAzkoRpbYnnfD4Dn1DD-17" edge="1">
          <mxGeometry width="50" height="50" relative="1" as="geometry">
            <mxPoint x="710" y="160" as="sourcePoint" />
            <mxPoint x="1010" y="-185" as="targetPoint" />
          </mxGeometry>
        </mxCell>
        <mxCell id="YsAzkoRpbYnnfD4Dn1DD-19" value="Yes" style="edgeLabel;html=1;align=center;verticalAlign=middle;resizable=0;points=[];" parent="YsAzkoRpbYnnfD4Dn1DD-18" vertex="1" connectable="0">
          <mxGeometry x="-0.0444" relative="1" as="geometry">
            <mxPoint as="offset" />
          </mxGeometry>
        </mxCell>
        <mxCell id="YsAzkoRpbYnnfD4Dn1DD-20" value="" style="endArrow=classic;html=1;exitX=0.5;exitY=1;exitDx=0;exitDy=0;entryX=0.5;entryY=0;entryDx=0;entryDy=0;" parent="WIyWlLk6GJQsqaUBKTNV-1" source="YsAzkoRpbYnnfD4Dn1DD-14" target="YsAzkoRpbYnnfD4Dn1DD-21" edge="1">
          <mxGeometry width="50" height="50" relative="1" as="geometry">
            <mxPoint x="710" y="160" as="sourcePoint" />
            <mxPoint x="550" y="60" as="targetPoint" />
          </mxGeometry>
        </mxCell>
        <mxCell id="YsAzkoRpbYnnfD4Dn1DD-22" value="No" style="edgeLabel;html=1;align=center;verticalAlign=middle;resizable=0;points=[];" parent="YsAzkoRpbYnnfD4Dn1DD-20" vertex="1" connectable="0">
          <mxGeometry x="0.0833" y="-1" relative="1" as="geometry">
            <mxPoint as="offset" />
          </mxGeometry>
        </mxCell>
        <mxCell id="YsAzkoRpbYnnfD4Dn1DD-73" style="edgeStyle=orthogonalEdgeStyle;rounded=0;orthogonalLoop=1;jettySize=auto;html=1;" parent="WIyWlLk6GJQsqaUBKTNV-1" source="YsAzkoRpbYnnfD4Dn1DD-100" target="YsAzkoRpbYnnfD4Dn1DD-70" edge="1">
          <mxGeometry relative="1" as="geometry" />
        </mxCell>
        <mxCell id="YsAzkoRpbYnnfD4Dn1DD-21" value="Ok, no problem!&lt;br&gt;You can always add services in the side menu." style="rounded=0;whiteSpace=wrap;html=1;" parent="WIyWlLk6GJQsqaUBKTNV-1" vertex="1">
          <mxGeometry x="942" y="170" width="136" height="60" as="geometry" />
        </mxCell>
        <mxCell id="YsAzkoRpbYnnfD4Dn1DD-25" value="Welcome to Bayshore" style="rounded=1;whiteSpace=wrap;html=1;" parent="WIyWlLk6GJQsqaUBKTNV-1" vertex="1">
          <mxGeometry x="270" y="490" width="120" height="60" as="geometry" />
        </mxCell>
        <mxCell id="YsAzkoRpbYnnfD4Dn1DD-26" value="" style="endArrow=classic;html=1;entryX=0.5;entryY=0;entryDx=0;entryDy=0;exitX=0.5;exitY=1;exitDx=0;exitDy=0;" parent="WIyWlLk6GJQsqaUBKTNV-1" source="YsAzkoRpbYnnfD4Dn1DD-10" target="YsAzkoRpbYnnfD4Dn1DD-27" edge="1">
          <mxGeometry width="50" height="50" relative="1" as="geometry">
            <mxPoint x="500" y="780" as="sourcePoint" />
            <mxPoint x="550" y="730" as="targetPoint" />
          </mxGeometry>
        </mxCell>
        <mxCell id="YsAzkoRpbYnnfD4Dn1DD-27" value="Need to add &lt;br&gt;more service" style="rhombus;whiteSpace=wrap;html=1;" parent="WIyWlLk6GJQsqaUBKTNV-1" vertex="1">
          <mxGeometry x="560" y="465" width="107.5" height="110" as="geometry" />
        </mxCell>
        <mxCell id="YsAzkoRpbYnnfD4Dn1DD-28" value="No" style="endArrow=classic;html=1;entryX=1;entryY=0.5;entryDx=0;entryDy=0;exitX=0;exitY=0.5;exitDx=0;exitDy=0;" parent="WIyWlLk6GJQsqaUBKTNV-1" source="Q42gA46FR1tCBZRYkZNn-0" target="YsAzkoRpbYnnfD4Dn1DD-25" edge="1">
          <mxGeometry width="50" height="50" relative="1" as="geometry">
            <mxPoint x="500" y="760" as="sourcePoint" />
            <mxPoint x="550" y="710" as="targetPoint" />
          </mxGeometry>
        </mxCell>
        <mxCell id="YsAzkoRpbYnnfD4Dn1DD-29" value="&lt;font color=&quot;#ff4314&quot;&gt;We need an API&amp;nbsp; available service list&amp;nbsp;&lt;/font&gt; to link with account" style="rounded=0;whiteSpace=wrap;html=1;" parent="WIyWlLk6GJQsqaUBKTNV-1" vertex="1">
          <mxGeometry x="840" y="490" width="120" height="60" as="geometry" />
        </mxCell>
        <mxCell id="YsAzkoRpbYnnfD4Dn1DD-31" value="Yes" style="endArrow=classic;html=1;entryX=0;entryY=0.5;entryDx=0;entryDy=0;exitX=1;exitY=0.5;exitDx=0;exitDy=0;" parent="WIyWlLk6GJQsqaUBKTNV-1" source="Q42gA46FR1tCBZRYkZNn-2" target="YsAzkoRpbYnnfD4Dn1DD-29" edge="1">
          <mxGeometry width="50" height="50" relative="1" as="geometry">
            <mxPoint x="500" y="850" as="sourcePoint" />
            <mxPoint x="550" y="800" as="targetPoint" />
          </mxGeometry>
        </mxCell>
        <mxCell id="YsAzkoRpbYnnfD4Dn1DD-33" value="" style="endArrow=classic;html=1;entryX=0.5;entryY=0;entryDx=0;entryDy=0;exitX=0.5;exitY=1;exitDx=0;exitDy=0;" parent="WIyWlLk6GJQsqaUBKTNV-1" source="YsAzkoRpbYnnfD4Dn1DD-29" target="YsAzkoRpbYnnfD4Dn1DD-34" edge="1">
          <mxGeometry width="50" height="50" relative="1" as="geometry">
            <mxPoint x="500" y="880" as="sourcePoint" />
            <mxPoint x="550" y="830" as="targetPoint" />
          </mxGeometry>
        </mxCell>
        <mxCell id="YsAzkoRpbYnnfD4Dn1DD-35" style="edgeStyle=orthogonalEdgeStyle;rounded=0;orthogonalLoop=1;jettySize=auto;html=1;entryX=0.5;entryY=0;entryDx=0;entryDy=0;" parent="WIyWlLk6GJQsqaUBKTNV-1" source="YsAzkoRpbYnnfD4Dn1DD-97" target="YsAzkoRpbYnnfD4Dn1DD-74" edge="1">
          <mxGeometry relative="1" as="geometry">
            <mxPoint x="360" y="1050" as="targetPoint" />
          </mxGeometry>
        </mxCell>
        <mxCell id="YsAzkoRpbYnnfD4Dn1DD-34" value="&lt;font color=&quot;#ff4124&quot;&gt;Api to add new services&lt;/font&gt;" style="rounded=0;whiteSpace=wrap;html=1;" parent="WIyWlLk6GJQsqaUBKTNV-1" vertex="1">
          <mxGeometry x="840" y="670" width="120" height="60" as="geometry" />
        </mxCell>
        <mxCell id="YsAzkoRpbYnnfD4Dn1DD-40" style="edgeStyle=orthogonalEdgeStyle;rounded=0;orthogonalLoop=1;jettySize=auto;html=1;entryX=0.5;entryY=0;entryDx=0;entryDy=0;" parent="WIyWlLk6GJQsqaUBKTNV-1" source="YsAzkoRpbYnnfD4Dn1DD-36" target="YsAzkoRpbYnnfD4Dn1DD-38" edge="1">
          <mxGeometry relative="1" as="geometry" />
        </mxCell>
        <mxCell id="YsAzkoRpbYnnfD4Dn1DD-36" value="I am a Family Member" style="rounded=0;whiteSpace=wrap;html=1;" parent="WIyWlLk6GJQsqaUBKTNV-1" vertex="1">
          <mxGeometry x="40" y="140" width="120" height="60" as="geometry" />
        </mxCell>
        <mxCell id="YsAzkoRpbYnnfD4Dn1DD-37" value="" style="endArrow=classic;html=1;exitX=0.5;exitY=1;exitDx=0;exitDy=0;entryX=0.5;entryY=0;entryDx=0;entryDy=0;" parent="WIyWlLk6GJQsqaUBKTNV-1" source="WIyWlLk6GJQsqaUBKTNV-6" target="YsAzkoRpbYnnfD4Dn1DD-36" edge="1">
          <mxGeometry width="50" height="50" relative="1" as="geometry">
            <mxPoint x="500" y="620" as="sourcePoint" />
            <mxPoint x="550" y="570" as="targetPoint" />
          </mxGeometry>
        </mxCell>
        <mxCell id="YsAzkoRpbYnnfD4Dn1DD-38" value="Does the family member&lt;br&gt;&amp;nbsp;in care have an existing account number?" style="rhombus;whiteSpace=wrap;html=1;" parent="WIyWlLk6GJQsqaUBKTNV-1" vertex="1">
          <mxGeometry x="8.129999999999995" y="240" width="183.75" height="180" as="geometry" />
        </mxCell>
        <mxCell id="YsAzkoRpbYnnfD4Dn1DD-41" value="" style="endArrow=classic;html=1;exitX=0.5;exitY=1;exitDx=0;exitDy=0;" parent="WIyWlLk6GJQsqaUBKTNV-1" source="YsAzkoRpbYnnfD4Dn1DD-38" target="YsAzkoRpbYnnfD4Dn1DD-42" edge="1">
          <mxGeometry width="50" height="50" relative="1" as="geometry">
            <mxPoint x="500" y="810" as="sourcePoint" />
            <mxPoint x="182" y="930" as="targetPoint" />
          </mxGeometry>
        </mxCell>
        <mxCell id="YsAzkoRpbYnnfD4Dn1DD-43" value="Yes" style="edgeLabel;html=1;align=center;verticalAlign=middle;resizable=0;points=[];" parent="YsAzkoRpbYnnfD4Dn1DD-41" vertex="1" connectable="0">
          <mxGeometry x="-0.2167" y="-1" relative="1" as="geometry">
            <mxPoint as="offset" />
          </mxGeometry>
        </mxCell>
        <mxCell id="YsAzkoRpbYnnfD4Dn1DD-46" style="edgeStyle=orthogonalEdgeStyle;rounded=0;orthogonalLoop=1;jettySize=auto;html=1;" parent="WIyWlLk6GJQsqaUBKTNV-1" source="YsAzkoRpbYnnfD4Dn1DD-42" target="YsAzkoRpbYnnfD4Dn1DD-44" edge="1">
          <mxGeometry relative="1" as="geometry" />
        </mxCell>
        <mxCell id="YsAzkoRpbYnnfD4Dn1DD-47" value="If ok" style="edgeLabel;html=1;align=center;verticalAlign=middle;resizable=0;points=[];" parent="YsAzkoRpbYnnfD4Dn1DD-46" vertex="1" connectable="0">
          <mxGeometry x="-0.2718" y="-2" relative="1" as="geometry">
            <mxPoint as="offset" />
          </mxGeometry>
        </mxCell>
        <mxCell id="YsAzkoRpbYnnfD4Dn1DD-42" value="&lt;font color=&quot;#1b6904&quot;&gt;Api to verify account with client account number&lt;/font&gt; and&amp;nbsp; &amp;nbsp;family member’s information" style="rounded=0;whiteSpace=wrap;html=1;" parent="WIyWlLk6GJQsqaUBKTNV-1" vertex="1">
          <mxGeometry x="40" y="490" width="120" height="60" as="geometry" />
        </mxCell>
        <mxCell id="YsAzkoRpbYnnfD4Dn1DD-49" style="edgeStyle=orthogonalEdgeStyle;rounded=0;orthogonalLoop=1;jettySize=auto;html=1;entryX=0.5;entryY=0;entryDx=0;entryDy=0;" parent="WIyWlLk6GJQsqaUBKTNV-1" source="YsAzkoRpbYnnfD4Dn1DD-44" target="YsAzkoRpbYnnfD4Dn1DD-48" edge="1">
          <mxGeometry relative="1" as="geometry" />
        </mxCell>
        <mxCell id="YsAzkoRpbYnnfD4Dn1DD-44" value="&lt;font color=&quot;#ff4f0f&quot;&gt;Api for list linked services&lt;br&gt;&lt;/font&gt;&lt;div&gt;1.56-Family&lt;/div&gt;&lt;div&gt;&lt;br&gt;&lt;/div&gt;" style="rounded=0;whiteSpace=wrap;html=1;" parent="WIyWlLk6GJQsqaUBKTNV-1" vertex="1">
          <mxGeometry x="40" y="630" width="120" height="60" as="geometry" />
        </mxCell>
        <mxCell id="YsAzkoRpbYnnfD4Dn1DD-48" value="&lt;font color=&quot;#ff4124&quot;&gt;need to link other service&lt;/font&gt;" style="rhombus;whiteSpace=wrap;html=1;" parent="WIyWlLk6GJQsqaUBKTNV-1" vertex="1">
          <mxGeometry x="35" y="730" width="130" height="113" as="geometry" />
        </mxCell>
        <mxCell id="YsAzkoRpbYnnfD4Dn1DD-56" style="edgeStyle=orthogonalEdgeStyle;rounded=0;orthogonalLoop=1;jettySize=auto;html=1;" parent="WIyWlLk6GJQsqaUBKTNV-1" source="YsAzkoRpbYnnfD4Dn1DD-53" target="YsAzkoRpbYnnfD4Dn1DD-55" edge="1">
          <mxGeometry relative="1" as="geometry" />
        </mxCell>
        <mxCell id="YsAzkoRpbYnnfD4Dn1DD-53" value="&lt;font color=&quot;#ff3414&quot;&gt;Api with list of service that can be link&lt;/font&gt;" style="rounded=0;whiteSpace=wrap;html=1;" parent="WIyWlLk6GJQsqaUBKTNV-1" vertex="1">
          <mxGeometry x="40.00999999999999" y="950" width="120" height="60" as="geometry" />
        </mxCell>
        <mxCell id="YsAzkoRpbYnnfD4Dn1DD-76" style="edgeStyle=orthogonalEdgeStyle;rounded=0;orthogonalLoop=1;jettySize=auto;html=1;entryX=0.75;entryY=1;entryDx=0;entryDy=0;" parent="WIyWlLk6GJQsqaUBKTNV-1" source="YsAzkoRpbYnnfD4Dn1DD-55" target="YsAzkoRpbYnnfD4Dn1DD-25" edge="1">
          <mxGeometry relative="1" as="geometry" />
        </mxCell>
        <mxCell id="YsAzkoRpbYnnfD4Dn1DD-55" value="&lt;font color=&quot;#ff4f0f&quot;&gt;Api to add this new service&lt;/font&gt;" style="rounded=0;whiteSpace=wrap;html=1;" parent="WIyWlLk6GJQsqaUBKTNV-1" vertex="1">
          <mxGeometry x="300" y="950" width="120" height="60" as="geometry" />
        </mxCell>
        <mxCell id="YsAzkoRpbYnnfD4Dn1DD-70" value="Welcome to Bayshore" style="rounded=1;whiteSpace=wrap;html=1;" parent="WIyWlLk6GJQsqaUBKTNV-1" vertex="1">
          <mxGeometry x="950" y="384" width="120" height="60" as="geometry" />
        </mxCell>
        <mxCell id="YsAzkoRpbYnnfD4Dn1DD-74" value="Welcome to Bayshore" style="rounded=1;whiteSpace=wrap;html=1;" parent="WIyWlLk6GJQsqaUBKTNV-1" vertex="1">
          <mxGeometry x="840" y="970" width="120" height="60" as="geometry" />
        </mxCell>
        <mxCell id="YsAzkoRpbYnnfD4Dn1DD-88" style="edgeStyle=orthogonalEdgeStyle;rounded=0;orthogonalLoop=1;jettySize=auto;html=1;entryX=0.5;entryY=0;entryDx=0;entryDy=0;" parent="WIyWlLk6GJQsqaUBKTNV-1" source="Q42gA46FR1tCBZRYkZNn-5" target="YsAzkoRpbYnnfD4Dn1DD-25" edge="1">
          <mxGeometry relative="1" as="geometry">
            <mxPoint x="330" y="364" as="targetPoint" />
            <mxPoint x="191.8800000000001" y="330" as="sourcePoint" />
          </mxGeometry>
        </mxCell>
        <mxCell id="YsAzkoRpbYnnfD4Dn1DD-89" value="No" style="edgeLabel;html=1;align=center;verticalAlign=middle;resizable=0;points=[];" parent="YsAzkoRpbYnnfD4Dn1DD-88" vertex="1" connectable="0">
          <mxGeometry x="-0.0477" y="-1" relative="1" as="geometry">
            <mxPoint as="offset" />
          </mxGeometry>
        </mxCell>
        <mxCell id="YsAzkoRpbYnnfD4Dn1DD-91" style="edgeStyle=orthogonalEdgeStyle;rounded=0;orthogonalLoop=1;jettySize=auto;html=1;entryX=0.25;entryY=1;entryDx=0;entryDy=0;" parent="WIyWlLk6GJQsqaUBKTNV-1" source="YsAzkoRpbYnnfD4Dn1DD-48" target="YsAzkoRpbYnnfD4Dn1DD-25" edge="1">
          <mxGeometry relative="1" as="geometry">
            <mxPoint x="160" y="893.5" as="sourcePoint" />
            <mxPoint x="290" y="750" as="targetPoint" />
          </mxGeometry>
        </mxCell>
        <mxCell id="YsAzkoRpbYnnfD4Dn1DD-92" value="No" style="edgeLabel;html=1;align=center;verticalAlign=middle;resizable=0;points=[];" parent="YsAzkoRpbYnnfD4Dn1DD-91" vertex="1" connectable="0">
          <mxGeometry x="-0.5016" y="-3" relative="1" as="geometry">
            <mxPoint as="offset" />
          </mxGeometry>
        </mxCell>
        <mxCell id="YsAzkoRpbYnnfD4Dn1DD-95" value="Yes" style="edgeStyle=orthogonalEdgeStyle;rounded=0;orthogonalLoop=1;jettySize=auto;html=1;entryX=0.5;entryY=0;entryDx=0;entryDy=0;" parent="WIyWlLk6GJQsqaUBKTNV-1" source="YsAzkoRpbYnnfD4Dn1DD-48" target="YsAzkoRpbYnnfD4Dn1DD-53" edge="1">
          <mxGeometry relative="1" as="geometry">
            <mxPoint x="100" y="960" as="sourcePoint" />
            <mxPoint x="100.00999999999999" y="1000" as="targetPoint" />
          </mxGeometry>
        </mxCell>
        <mxCell id="YsAzkoRpbYnnfD4Dn1DD-97" value="&lt;span style=&quot;color: rgb(255 , 52 , 20)&quot;&gt;update in&amp;nbsp;&lt;/span&gt;&lt;span style=&quot;color: rgb(255 , 52 , 20)&quot;&gt;Amplify&lt;/span&gt;" style="ellipse;whiteSpace=wrap;html=1;" parent="WIyWlLk6GJQsqaUBKTNV-1" vertex="1">
          <mxGeometry x="840" y="827" width="120" height="80" as="geometry" />
        </mxCell>
        <mxCell id="YsAzkoRpbYnnfD4Dn1DD-98" style="edgeStyle=orthogonalEdgeStyle;rounded=0;orthogonalLoop=1;jettySize=auto;html=1;entryX=0.5;entryY=0;entryDx=0;entryDy=0;" parent="WIyWlLk6GJQsqaUBKTNV-1" source="YsAzkoRpbYnnfD4Dn1DD-34" target="YsAzkoRpbYnnfD4Dn1DD-97" edge="1">
          <mxGeometry relative="1" as="geometry">
            <mxPoint x="890" y="770" as="sourcePoint" />
            <mxPoint x="890" y="930" as="targetPoint" />
          </mxGeometry>
        </mxCell>
        <mxCell id="YsAzkoRpbYnnfD4Dn1DD-100" value="&lt;span style=&quot;color: rgb(255 , 52 , 20)&quot;&gt;update in&amp;nbsp;&lt;/span&gt;&lt;span style=&quot;color: rgb(255 , 52 , 20)&quot;&gt;Amplify&lt;/span&gt;" style="ellipse;whiteSpace=wrap;html=1;" parent="WIyWlLk6GJQsqaUBKTNV-1" vertex="1">
          <mxGeometry x="1010" y="270" width="102" height="70" as="geometry" />
        </mxCell>
        <mxCell id="YsAzkoRpbYnnfD4Dn1DD-101" style="edgeStyle=orthogonalEdgeStyle;rounded=0;orthogonalLoop=1;jettySize=auto;html=1;" parent="WIyWlLk6GJQsqaUBKTNV-1" source="YsAzkoRpbYnnfD4Dn1DD-21" target="YsAzkoRpbYnnfD4Dn1DD-100" edge="1">
          <mxGeometry relative="1" as="geometry">
            <mxPoint x="1010" y="230" as="sourcePoint" />
            <mxPoint x="1010" y="353.5" as="targetPoint" />
          </mxGeometry>
        </mxCell>
        <mxCell id="YsAzkoRpbYnnfD4Dn1DD-102" value="&lt;span style=&quot;color: rgb(255 , 52 , 20)&quot;&gt;update in&amp;nbsp;&lt;/span&gt;&lt;span style=&quot;color: rgb(255 , 52 , 20)&quot;&gt;Amplify&lt;/span&gt;" style="ellipse;whiteSpace=wrap;html=1;" parent="WIyWlLk6GJQsqaUBKTNV-1" vertex="1">
          <mxGeometry x="969.5" y="-240" width="81" height="70" as="geometry" />
        </mxCell>
        <mxCell id="YsAzkoRpbYnnfD4Dn1DD-103" value="" style="endArrow=classic;html=1;exitX=0.5;exitY=0;exitDx=0;exitDy=0;entryX=0.5;entryY=1;entryDx=0;entryDy=0;" parent="WIyWlLk6GJQsqaUBKTNV-1" source="YsAzkoRpbYnnfD4Dn1DD-14" target="YsAzkoRpbYnnfD4Dn1DD-102" edge="1">
          <mxGeometry width="50" height="50" relative="1" as="geometry">
            <mxPoint x="1010" y="-110" as="sourcePoint" />
            <mxPoint x="1020" y="-230" as="targetPoint" />
          </mxGeometry>
        </mxCell>
        <mxCell id="YsAzkoRpbYnnfD4Dn1DD-104" value="Yes" style="edgeLabel;html=1;align=center;verticalAlign=middle;resizable=0;points=[];" parent="YsAzkoRpbYnnfD4Dn1DD-103" vertex="1" connectable="0">
          <mxGeometry x="-0.0444" relative="1" as="geometry">
            <mxPoint as="offset" />
          </mxGeometry>
        </mxCell>
        <mxCell id="Q42gA46FR1tCBZRYkZNn-0" value="&lt;span style=&quot;color: rgb(255 , 52 , 20)&quot;&gt;update in&amp;nbsp;&lt;/span&gt;&lt;span style=&quot;color: rgb(255 , 52 , 20)&quot;&gt;Amplify&lt;/span&gt;" style="ellipse;whiteSpace=wrap;html=1;" vertex="1" parent="WIyWlLk6GJQsqaUBKTNV-1">
          <mxGeometry x="440" y="490" width="77.5" height="60" as="geometry" />
        </mxCell>
        <mxCell id="Q42gA46FR1tCBZRYkZNn-1" value="No" style="endArrow=classic;html=1;entryX=1;entryY=0.5;entryDx=0;entryDy=0;exitX=0;exitY=0.5;exitDx=0;exitDy=0;" edge="1" parent="WIyWlLk6GJQsqaUBKTNV-1" source="YsAzkoRpbYnnfD4Dn1DD-27" target="Q42gA46FR1tCBZRYkZNn-0">
          <mxGeometry width="50" height="50" relative="1" as="geometry">
            <mxPoint x="548.75" y="505" as="sourcePoint" />
            <mxPoint x="410" y="505" as="targetPoint" />
          </mxGeometry>
        </mxCell>
        <mxCell id="Q42gA46FR1tCBZRYkZNn-2" value="&lt;span style=&quot;color: rgb(255 , 52 , 20)&quot;&gt;update in&amp;nbsp;&lt;/span&gt;&lt;span style=&quot;color: rgb(255 , 52 , 20)&quot;&gt;Amplify&lt;/span&gt;" style="ellipse;whiteSpace=wrap;html=1;" vertex="1" parent="WIyWlLk6GJQsqaUBKTNV-1">
          <mxGeometry x="710" y="490" width="77.5" height="60" as="geometry" />
        </mxCell>
        <mxCell id="Q42gA46FR1tCBZRYkZNn-3" value="Yes" style="endArrow=classic;html=1;entryX=0;entryY=0.5;entryDx=0;entryDy=0;exitX=1;exitY=0.5;exitDx=0;exitDy=0;" edge="1" parent="WIyWlLk6GJQsqaUBKTNV-1" source="YsAzkoRpbYnnfD4Dn1DD-27" target="Q42gA46FR1tCBZRYkZNn-2">
          <mxGeometry width="50" height="50" relative="1" as="geometry">
            <mxPoint x="656.25" y="505" as="sourcePoint" />
            <mxPoint x="830" y="505" as="targetPoint" />
          </mxGeometry>
        </mxCell>
        <mxCell id="Q42gA46FR1tCBZRYkZNn-5" value="&lt;span style=&quot;color: rgb(255 , 52 , 20)&quot;&gt;update in&amp;nbsp;&lt;/span&gt;&lt;span style=&quot;color: rgb(255 , 52 , 20)&quot;&gt;Amplify&lt;/span&gt;" style="ellipse;whiteSpace=wrap;html=1;" vertex="1" parent="WIyWlLk6GJQsqaUBKTNV-1">
          <mxGeometry x="280" y="350" width="102" height="70" as="geometry" />
        </mxCell>
        <mxCell id="Q42gA46FR1tCBZRYkZNn-6" style="edgeStyle=orthogonalEdgeStyle;rounded=0;orthogonalLoop=1;jettySize=auto;html=1;entryX=0.5;entryY=0;entryDx=0;entryDy=0;" edge="1" parent="WIyWlLk6GJQsqaUBKTNV-1" source="YsAzkoRpbYnnfD4Dn1DD-38" target="Q42gA46FR1tCBZRYkZNn-5">
          <mxGeometry relative="1" as="geometry">
            <mxPoint x="330" y="490" as="targetPoint" />
            <mxPoint x="191.8800000000001" y="330" as="sourcePoint" />
          </mxGeometry>
        </mxCell>
        <mxCell id="Q42gA46FR1tCBZRYkZNn-7" value="No" style="edgeLabel;html=1;align=center;verticalAlign=middle;resizable=0;points=[];" vertex="1" connectable="0" parent="Q42gA46FR1tCBZRYkZNn-6">
          <mxGeometry x="-0.0477" y="-1" relative="1" as="geometry">
            <mxPoint as="offset" />
          </mxGeometry>
        </mxCell>
      </root>
    </mxGraphModel>
  </diagram>
</mxfile>
